<svg width="249" height="206" viewBox="0 0 249 206" fill="none" xmlns="http://www.w3.org/2000/svg">
  <path d="M181.95 85.6201V167.76H150.05V88.8001C150.05 83.8601 149.51 79.4101 148.44 75.4401C148.49 75.3401 148.44 75.2401 148.39 75.1501C147.17 69.4301 144.92 64.8301 141.59 61.2601C136.31 55.5801 129.02 52.7501 119.67 52.7501C119.28 52.7501 118.89 52.7501 118.54 52.8001C118.2 52.7501 117.81 52.7501 117.41 52.7501C108.07 52.7501 100.73 55.5901 95.44 61.2601C92.55 64.3901 90.45 68.3501 89.23 73.1501C88.99 73.7901 88.84 74.4701 88.69 75.1601C87.52 79.1701 86.98 83.7201 86.98 88.8101V167.77H55.08V85.6201C55.08 66.2501 59.78 51.3301 69.12 40.8601C73.82 35.5801 79.44 31.6101 86 28.9701C92.46 26.4301 99.85 25.1101 108.16 25.1101C111.78 25.1101 115.08 25.1601 118.53 25.1601C121.98 25.1601 125.28 25.1101 128.85 25.1101C137.12 25.1101 144.51 26.4301 151.01 28.9701C157.57 31.6101 163.24 35.5701 167.94 40.8601C177.3 51.3201 181.95 66.2401 181.95 85.6201Z" fill="#31B58D"/>
  <path d="M196.03 167.74H135.55V156.87C135.55 150.13 141.06 144.62 147.8 144.62H183.78C190.52 144.62 196.03 150.13 196.03 156.87V167.74Z" fill="#31B58D"/>
</svg>
